<mxfile host="Electron" modified="2024-03-08T14:52:01.068Z" agent="Mozilla/5.0 (Windows NT 10.0; Win64; x64) AppleWebKit/537.36 (KHTML, like Gecko) draw.io/23.1.5 Chrome/120.0.6099.109 Electron/28.1.0 Safari/537.36" etag="j8eBHgLCNeERUjtgKkQ6" version="23.1.5" type="device">
  <diagram id="C5RBs43oDa-KdzZeNtuy" name="Page-1">
    <mxGraphModel dx="1257" dy="774" grid="1" gridSize="10" guides="1" tooltips="1" connect="1" arrows="1" fold="1" page="1" pageScale="1" pageWidth="827" pageHeight="1169" math="0" shadow="0">
      <root>
        <mxCell id="WIyWlLk6GJQsqaUBKTNV-0" />
        <mxCell id="WIyWlLk6GJQsqaUBKTNV-1" parent="WIyWlLk6GJQsqaUBKTNV-0" />
        <mxCell id="TBfihA2gvk4wY0x8W2yq-75" style="edgeStyle=orthogonalEdgeStyle;rounded=0;orthogonalLoop=1;jettySize=auto;html=1;entryX=0;entryY=0.5;entryDx=0;entryDy=0;" edge="1" parent="WIyWlLk6GJQsqaUBKTNV-1" source="TBfihA2gvk4wY0x8W2yq-58" target="TBfihA2gvk4wY0x8W2yq-61">
          <mxGeometry relative="1" as="geometry" />
        </mxCell>
        <mxCell id="TBfihA2gvk4wY0x8W2yq-95" style="edgeStyle=orthogonalEdgeStyle;rounded=0;orthogonalLoop=1;jettySize=auto;html=1;entryX=0;entryY=0.5;entryDx=0;entryDy=0;" edge="1" parent="WIyWlLk6GJQsqaUBKTNV-1" source="TBfihA2gvk4wY0x8W2yq-58" target="TBfihA2gvk4wY0x8W2yq-86">
          <mxGeometry relative="1" as="geometry" />
        </mxCell>
        <mxCell id="TBfihA2gvk4wY0x8W2yq-58" value="Início" style="ellipse;whiteSpace=wrap;html=1;" vertex="1" parent="WIyWlLk6GJQsqaUBKTNV-1">
          <mxGeometry x="20" y="440" width="50" height="30" as="geometry" />
        </mxCell>
        <mxCell id="TBfihA2gvk4wY0x8W2yq-67" style="edgeStyle=orthogonalEdgeStyle;rounded=0;orthogonalLoop=1;jettySize=auto;html=1;exitX=0.5;exitY=1;exitDx=0;exitDy=0;entryX=0.5;entryY=0;entryDx=0;entryDy=0;" edge="1" parent="WIyWlLk6GJQsqaUBKTNV-1" source="TBfihA2gvk4wY0x8W2yq-61" target="TBfihA2gvk4wY0x8W2yq-66">
          <mxGeometry relative="1" as="geometry" />
        </mxCell>
        <mxCell id="TBfihA2gvk4wY0x8W2yq-73" value="Não" style="edgeLabel;html=1;align=center;verticalAlign=middle;resizable=0;points=[];" vertex="1" connectable="0" parent="TBfihA2gvk4wY0x8W2yq-67">
          <mxGeometry x="-0.7097" y="-1" relative="1" as="geometry">
            <mxPoint x="1" as="offset" />
          </mxGeometry>
        </mxCell>
        <mxCell id="TBfihA2gvk4wY0x8W2yq-71" style="edgeStyle=orthogonalEdgeStyle;rounded=0;orthogonalLoop=1;jettySize=auto;html=1;entryX=0;entryY=0.5;entryDx=0;entryDy=0;" edge="1" parent="WIyWlLk6GJQsqaUBKTNV-1" source="TBfihA2gvk4wY0x8W2yq-61" target="TBfihA2gvk4wY0x8W2yq-63">
          <mxGeometry relative="1" as="geometry">
            <Array as="points">
              <mxPoint x="259" y="200" />
            </Array>
          </mxGeometry>
        </mxCell>
        <mxCell id="TBfihA2gvk4wY0x8W2yq-72" value="Sim" style="edgeLabel;html=1;align=center;verticalAlign=middle;resizable=0;points=[];" vertex="1" connectable="0" parent="TBfihA2gvk4wY0x8W2yq-71">
          <mxGeometry x="0.2365" y="-1" relative="1" as="geometry">
            <mxPoint as="offset" />
          </mxGeometry>
        </mxCell>
        <mxCell id="TBfihA2gvk4wY0x8W2yq-61" value="Novo Veículo?" style="rhombus;whiteSpace=wrap;html=1;" vertex="1" parent="WIyWlLk6GJQsqaUBKTNV-1">
          <mxGeometry x="204" y="242" width="110" height="75" as="geometry" />
        </mxCell>
        <mxCell id="TBfihA2gvk4wY0x8W2yq-76" style="edgeStyle=orthogonalEdgeStyle;rounded=0;orthogonalLoop=1;jettySize=auto;html=1;endArrow=classic;endFill=1;" edge="1" parent="WIyWlLk6GJQsqaUBKTNV-1" source="TBfihA2gvk4wY0x8W2yq-63">
          <mxGeometry relative="1" as="geometry">
            <mxPoint x="170" y="280" as="targetPoint" />
            <Array as="points">
              <mxPoint x="384" y="160" />
              <mxPoint x="170" y="160" />
              <mxPoint x="170" y="280" />
            </Array>
          </mxGeometry>
        </mxCell>
        <mxCell id="TBfihA2gvk4wY0x8W2yq-63" value="Cadastrar Veículo" style="rounded=0;whiteSpace=wrap;html=1;" vertex="1" parent="WIyWlLk6GJQsqaUBKTNV-1">
          <mxGeometry x="354" y="180" width="60" height="40" as="geometry" />
        </mxCell>
        <mxCell id="TBfihA2gvk4wY0x8W2yq-79" style="edgeStyle=orthogonalEdgeStyle;rounded=0;orthogonalLoop=1;jettySize=auto;html=1;" edge="1" parent="WIyWlLk6GJQsqaUBKTNV-1" source="TBfihA2gvk4wY0x8W2yq-64">
          <mxGeometry relative="1" as="geometry">
            <mxPoint x="170" y="280" as="targetPoint" />
            <Array as="points">
              <mxPoint x="394" y="460" />
              <mxPoint x="170" y="460" />
              <mxPoint x="170" y="280" />
            </Array>
          </mxGeometry>
        </mxCell>
        <mxCell id="TBfihA2gvk4wY0x8W2yq-64" value="Editar&lt;br&gt;Veículo" style="rounded=0;whiteSpace=wrap;html=1;" vertex="1" parent="WIyWlLk6GJQsqaUBKTNV-1">
          <mxGeometry x="364" y="400" width="50" height="40" as="geometry" />
        </mxCell>
        <mxCell id="TBfihA2gvk4wY0x8W2yq-68" style="edgeStyle=orthogonalEdgeStyle;rounded=0;orthogonalLoop=1;jettySize=auto;html=1;exitX=1;exitY=0.5;exitDx=0;exitDy=0;entryX=0;entryY=0.5;entryDx=0;entryDy=0;" edge="1" parent="WIyWlLk6GJQsqaUBKTNV-1" source="TBfihA2gvk4wY0x8W2yq-66" target="TBfihA2gvk4wY0x8W2yq-64">
          <mxGeometry relative="1" as="geometry" />
        </mxCell>
        <mxCell id="TBfihA2gvk4wY0x8W2yq-78" style="edgeStyle=orthogonalEdgeStyle;rounded=0;orthogonalLoop=1;jettySize=auto;html=1;entryX=0;entryY=0.5;entryDx=0;entryDy=0;" edge="1" parent="WIyWlLk6GJQsqaUBKTNV-1" source="TBfihA2gvk4wY0x8W2yq-66" target="TBfihA2gvk4wY0x8W2yq-65">
          <mxGeometry relative="1" as="geometry" />
        </mxCell>
        <mxCell id="TBfihA2gvk4wY0x8W2yq-66" value="Escolha uma opção" style="rounded=0;whiteSpace=wrap;html=1;" vertex="1" parent="WIyWlLk6GJQsqaUBKTNV-1">
          <mxGeometry x="226.5" y="360" width="65" height="40" as="geometry" />
        </mxCell>
        <mxCell id="TBfihA2gvk4wY0x8W2yq-98" style="edgeStyle=orthogonalEdgeStyle;rounded=0;orthogonalLoop=1;jettySize=auto;html=1;entryX=0;entryY=0.5;entryDx=0;entryDy=0;" edge="1" parent="WIyWlLk6GJQsqaUBKTNV-1" source="TBfihA2gvk4wY0x8W2yq-65" target="TBfihA2gvk4wY0x8W2yq-96">
          <mxGeometry relative="1" as="geometry" />
        </mxCell>
        <mxCell id="TBfihA2gvk4wY0x8W2yq-65" value="Buscar&lt;br&gt;Veículo" style="rounded=0;whiteSpace=wrap;html=1;" vertex="1" parent="WIyWlLk6GJQsqaUBKTNV-1">
          <mxGeometry x="364" y="320" width="50" height="40" as="geometry" />
        </mxCell>
        <mxCell id="TBfihA2gvk4wY0x8W2yq-82" style="edgeStyle=orthogonalEdgeStyle;rounded=0;orthogonalLoop=1;jettySize=auto;html=1;exitX=0.5;exitY=1;exitDx=0;exitDy=0;entryX=0.5;entryY=0;entryDx=0;entryDy=0;" edge="1" parent="WIyWlLk6GJQsqaUBKTNV-1" source="TBfihA2gvk4wY0x8W2yq-86" target="TBfihA2gvk4wY0x8W2yq-93">
          <mxGeometry relative="1" as="geometry" />
        </mxCell>
        <mxCell id="TBfihA2gvk4wY0x8W2yq-83" value="Não" style="edgeLabel;html=1;align=center;verticalAlign=middle;resizable=0;points=[];" vertex="1" connectable="0" parent="TBfihA2gvk4wY0x8W2yq-82">
          <mxGeometry x="-0.7097" y="-1" relative="1" as="geometry">
            <mxPoint x="1" as="offset" />
          </mxGeometry>
        </mxCell>
        <mxCell id="TBfihA2gvk4wY0x8W2yq-84" style="edgeStyle=orthogonalEdgeStyle;rounded=0;orthogonalLoop=1;jettySize=auto;html=1;entryX=0;entryY=0.5;entryDx=0;entryDy=0;" edge="1" parent="WIyWlLk6GJQsqaUBKTNV-1" source="TBfihA2gvk4wY0x8W2yq-86" target="TBfihA2gvk4wY0x8W2yq-88">
          <mxGeometry relative="1" as="geometry">
            <Array as="points">
              <mxPoint x="260" y="540" />
            </Array>
          </mxGeometry>
        </mxCell>
        <mxCell id="TBfihA2gvk4wY0x8W2yq-85" value="Sim" style="edgeLabel;html=1;align=center;verticalAlign=middle;resizable=0;points=[];" vertex="1" connectable="0" parent="TBfihA2gvk4wY0x8W2yq-84">
          <mxGeometry x="0.2365" y="-1" relative="1" as="geometry">
            <mxPoint as="offset" />
          </mxGeometry>
        </mxCell>
        <mxCell id="TBfihA2gvk4wY0x8W2yq-86" value="Novo Cliente?" style="rhombus;whiteSpace=wrap;html=1;" vertex="1" parent="WIyWlLk6GJQsqaUBKTNV-1">
          <mxGeometry x="205" y="582" width="110" height="75" as="geometry" />
        </mxCell>
        <mxCell id="TBfihA2gvk4wY0x8W2yq-87" style="edgeStyle=orthogonalEdgeStyle;rounded=0;orthogonalLoop=1;jettySize=auto;html=1;endArrow=classic;endFill=1;" edge="1" parent="WIyWlLk6GJQsqaUBKTNV-1" source="TBfihA2gvk4wY0x8W2yq-88">
          <mxGeometry relative="1" as="geometry">
            <mxPoint x="170" y="620" as="targetPoint" />
            <Array as="points">
              <mxPoint x="385" y="500" />
              <mxPoint x="170" y="500" />
              <mxPoint x="170" y="620" />
            </Array>
          </mxGeometry>
        </mxCell>
        <mxCell id="TBfihA2gvk4wY0x8W2yq-88" value="Cadastrar Cliente" style="rounded=0;whiteSpace=wrap;html=1;" vertex="1" parent="WIyWlLk6GJQsqaUBKTNV-1">
          <mxGeometry x="355" y="520" width="60" height="40" as="geometry" />
        </mxCell>
        <mxCell id="TBfihA2gvk4wY0x8W2yq-89" style="edgeStyle=orthogonalEdgeStyle;rounded=0;orthogonalLoop=1;jettySize=auto;html=1;" edge="1" parent="WIyWlLk6GJQsqaUBKTNV-1" source="TBfihA2gvk4wY0x8W2yq-90">
          <mxGeometry relative="1" as="geometry">
            <mxPoint x="170" y="620" as="targetPoint" />
            <Array as="points">
              <mxPoint x="395" y="800" />
              <mxPoint x="170" y="800" />
              <mxPoint x="170" y="620" />
            </Array>
          </mxGeometry>
        </mxCell>
        <mxCell id="TBfihA2gvk4wY0x8W2yq-90" value="Editar&lt;br&gt;Cliente" style="rounded=0;whiteSpace=wrap;html=1;" vertex="1" parent="WIyWlLk6GJQsqaUBKTNV-1">
          <mxGeometry x="365" y="740" width="50" height="40" as="geometry" />
        </mxCell>
        <mxCell id="TBfihA2gvk4wY0x8W2yq-91" style="edgeStyle=orthogonalEdgeStyle;rounded=0;orthogonalLoop=1;jettySize=auto;html=1;exitX=1;exitY=0.5;exitDx=0;exitDy=0;entryX=0;entryY=0.5;entryDx=0;entryDy=0;" edge="1" parent="WIyWlLk6GJQsqaUBKTNV-1" source="TBfihA2gvk4wY0x8W2yq-93" target="TBfihA2gvk4wY0x8W2yq-90">
          <mxGeometry relative="1" as="geometry" />
        </mxCell>
        <mxCell id="TBfihA2gvk4wY0x8W2yq-92" style="edgeStyle=orthogonalEdgeStyle;rounded=0;orthogonalLoop=1;jettySize=auto;html=1;entryX=0;entryY=0.5;entryDx=0;entryDy=0;" edge="1" parent="WIyWlLk6GJQsqaUBKTNV-1" source="TBfihA2gvk4wY0x8W2yq-93" target="TBfihA2gvk4wY0x8W2yq-94">
          <mxGeometry relative="1" as="geometry" />
        </mxCell>
        <mxCell id="TBfihA2gvk4wY0x8W2yq-93" value="Escolha uma opção" style="rounded=0;whiteSpace=wrap;html=1;" vertex="1" parent="WIyWlLk6GJQsqaUBKTNV-1">
          <mxGeometry x="227.5" y="700" width="65" height="40" as="geometry" />
        </mxCell>
        <mxCell id="TBfihA2gvk4wY0x8W2yq-97" style="edgeStyle=orthogonalEdgeStyle;rounded=0;orthogonalLoop=1;jettySize=auto;html=1;entryX=0;entryY=0.5;entryDx=0;entryDy=0;" edge="1" parent="WIyWlLk6GJQsqaUBKTNV-1" source="TBfihA2gvk4wY0x8W2yq-94" target="TBfihA2gvk4wY0x8W2yq-96">
          <mxGeometry relative="1" as="geometry" />
        </mxCell>
        <mxCell id="TBfihA2gvk4wY0x8W2yq-94" value="Buscar&lt;br&gt;Cliente" style="rounded=0;whiteSpace=wrap;html=1;" vertex="1" parent="WIyWlLk6GJQsqaUBKTNV-1">
          <mxGeometry x="365" y="660" width="50" height="40" as="geometry" />
        </mxCell>
        <mxCell id="TBfihA2gvk4wY0x8W2yq-100" style="edgeStyle=orthogonalEdgeStyle;rounded=0;orthogonalLoop=1;jettySize=auto;html=1;exitX=1;exitY=0.5;exitDx=0;exitDy=0;entryX=0;entryY=0.5;entryDx=0;entryDy=0;" edge="1" parent="WIyWlLk6GJQsqaUBKTNV-1" source="TBfihA2gvk4wY0x8W2yq-96" target="TBfihA2gvk4wY0x8W2yq-99">
          <mxGeometry relative="1" as="geometry" />
        </mxCell>
        <mxCell id="TBfihA2gvk4wY0x8W2yq-96" value="Alugar Veículo" style="rounded=0;whiteSpace=wrap;html=1;" vertex="1" parent="WIyWlLk6GJQsqaUBKTNV-1">
          <mxGeometry x="530" y="460" width="60" height="40" as="geometry" />
        </mxCell>
        <mxCell id="TBfihA2gvk4wY0x8W2yq-101" style="edgeStyle=orthogonalEdgeStyle;rounded=0;orthogonalLoop=1;jettySize=auto;html=1;" edge="1" parent="WIyWlLk6GJQsqaUBKTNV-1" source="TBfihA2gvk4wY0x8W2yq-99">
          <mxGeometry relative="1" as="geometry">
            <mxPoint x="510" y="480" as="targetPoint" />
            <Array as="points">
              <mxPoint x="675" y="400" />
              <mxPoint x="510" y="400" />
              <mxPoint x="510" y="480" />
            </Array>
          </mxGeometry>
        </mxCell>
        <mxCell id="TBfihA2gvk4wY0x8W2yq-102" value="Sim" style="edgeLabel;html=1;align=center;verticalAlign=middle;resizable=0;points=[];" vertex="1" connectable="0" parent="TBfihA2gvk4wY0x8W2yq-101">
          <mxGeometry x="-0.2515" relative="1" as="geometry">
            <mxPoint as="offset" />
          </mxGeometry>
        </mxCell>
        <mxCell id="TBfihA2gvk4wY0x8W2yq-104" style="edgeStyle=orthogonalEdgeStyle;rounded=0;orthogonalLoop=1;jettySize=auto;html=1;exitX=0.5;exitY=1;exitDx=0;exitDy=0;entryX=0.5;entryY=0;entryDx=0;entryDy=0;" edge="1" parent="WIyWlLk6GJQsqaUBKTNV-1" source="TBfihA2gvk4wY0x8W2yq-99" target="TBfihA2gvk4wY0x8W2yq-103">
          <mxGeometry relative="1" as="geometry" />
        </mxCell>
        <mxCell id="TBfihA2gvk4wY0x8W2yq-105" value="Não" style="edgeLabel;html=1;align=center;verticalAlign=middle;resizable=0;points=[];" vertex="1" connectable="0" parent="TBfihA2gvk4wY0x8W2yq-104">
          <mxGeometry x="-0.1103" y="-1" relative="1" as="geometry">
            <mxPoint as="offset" />
          </mxGeometry>
        </mxCell>
        <mxCell id="TBfihA2gvk4wY0x8W2yq-99" value="Mais Alugueis?" style="rhombus;whiteSpace=wrap;html=1;" vertex="1" parent="WIyWlLk6GJQsqaUBKTNV-1">
          <mxGeometry x="620" y="442.5" width="110" height="75" as="geometry" />
        </mxCell>
        <mxCell id="TBfihA2gvk4wY0x8W2yq-109" style="edgeStyle=orthogonalEdgeStyle;rounded=0;orthogonalLoop=1;jettySize=auto;html=1;exitX=0.5;exitY=1;exitDx=0;exitDy=0;entryX=0.5;entryY=0;entryDx=0;entryDy=0;" edge="1" parent="WIyWlLk6GJQsqaUBKTNV-1" source="TBfihA2gvk4wY0x8W2yq-103" target="TBfihA2gvk4wY0x8W2yq-108">
          <mxGeometry relative="1" as="geometry" />
        </mxCell>
        <mxCell id="TBfihA2gvk4wY0x8W2yq-103" value="Devolver Veículo" style="rounded=0;whiteSpace=wrap;html=1;" vertex="1" parent="WIyWlLk6GJQsqaUBKTNV-1">
          <mxGeometry x="645" y="600" width="60" height="40" as="geometry" />
        </mxCell>
        <mxCell id="TBfihA2gvk4wY0x8W2yq-106" value="Fim" style="ellipse;whiteSpace=wrap;html=1;" vertex="1" parent="WIyWlLk6GJQsqaUBKTNV-1">
          <mxGeometry x="650" y="750" width="50" height="30" as="geometry" />
        </mxCell>
        <mxCell id="TBfihA2gvk4wY0x8W2yq-110" style="edgeStyle=orthogonalEdgeStyle;rounded=0;orthogonalLoop=1;jettySize=auto;html=1;exitX=0.5;exitY=1;exitDx=0;exitDy=0;entryX=0.5;entryY=0;entryDx=0;entryDy=0;" edge="1" parent="WIyWlLk6GJQsqaUBKTNV-1" source="TBfihA2gvk4wY0x8W2yq-108" target="TBfihA2gvk4wY0x8W2yq-106">
          <mxGeometry relative="1" as="geometry" />
        </mxCell>
        <mxCell id="TBfihA2gvk4wY0x8W2yq-108" value="Realizar Pagamento" style="rounded=0;whiteSpace=wrap;html=1;" vertex="1" parent="WIyWlLk6GJQsqaUBKTNV-1">
          <mxGeometry x="632.5" y="680" width="85" height="40" as="geometry" />
        </mxCell>
      </root>
    </mxGraphModel>
  </diagram>
</mxfile>
